<?xml version="1.0" encoding="utf-8"?>
<!-- Generator: Adobe Illustrator 17.0.0, SVG Export Plug-In . SVG Version: 6.00 Build 0)  -->
<!DOCTYPE svg PUBLIC "-//W3C//DTD SVG 1.1//EN" "http://www.w3.org/Graphics/SVG/1.1/DTD/svg11.dtd">
<svg version="1.1" id="Layer_1" xmlns="http://www.w3.org/2000/svg" xmlns:xlink="http://www.w3.org/1999/xlink" x="0px" y="0px"
	 width="79px" height="80.234px" viewBox="15.431 -153.874 79 80.234" enable-background="new 15.431 -153.874 79 80.234"
	 xml:space="preserve">
<circle fill="#242D65" cx="54.931" cy="-113.14" r="39.5"/>
<g>
	<path fill="#FFFFFF" d="M55.418-79.874c-16.756-0.028-29.303-11.26-32.757-25.16c-0.822-3.309-1.117-6.661-0.94-10.068
		c0.772-14.902,11.38-26.881,25.177-30.3c2.908-0.72,5.859-1.064,8.848-0.997c12.932,0.289,23.195,7.677,28.476,17.486
		c1.864,3.462,3.084,7.14,3.635,11.03c0.42,2.962,0.436,5.928,0.083,8.906C86.332-95.42,76.322-84.16,62.889-80.833
		C60.259-80.182,57.583-79.885,55.418-79.874z M26.027-110.478c0.127,0.079,0.206,0.144,0.297,0.183
		c2.246,0.964,4.584,1.316,7.014,1.033c1.783-0.207,3.481-0.722,5.129-1.421c1.785-0.758,3.478-1.69,5.103-2.742
		c1.473-0.954,2.921-1.948,4.377-2.928c1.541-1.037,3.072-2.089,4.623-3.11c1.17-0.77,2.394-1.447,3.671-2.027
		c1.022-0.464,2.074-0.837,3.177-1.063c2.394-0.493,4.606-0.063,6.606,1.342c0.56,0.393,1.093,0.837,1.578,1.32
		c0.593,0.591,1.167,1.214,1.67,1.881c0.649,0.859,1.46,1.463,2.418,1.927c1.791,0.867,3.632,1.589,5.539,2.152
		c0.804,0.238,1.598,0.515,2.382,0.809c0.353,0.132,0.695,0.321,1.003,0.54c0.408,0.292,0.438,0.77,0.075,1.117
		c-0.196,0.189-0.448,0.337-0.698,0.45c-0.56,0.254-1.159,0.396-1.767,0.453c-1.24,0.116-2.482,0.256-3.726,0.28
		c-1.78,0.035-3.563-0.014-5.343-0.053c-0.615-0.014-1.22,0.025-1.823,0.128c-0.803,0.137-1.604,0.273-2.405,0.416
		c-2.228,0.398-4.452,0.813-6.648,1.373c-1.653,0.422-3.277,0.926-4.831,1.646c-2.281,1.056-4.097,2.636-5.416,4.775
		c-0.387,0.627-0.752,1.27-1.079,1.931c-0.405,0.82-0.784,1.656-1.131,2.501c-1.371,3.343-2.506,6.772-3.73,10.169
		c-0.032,0.09-0.028,0.193-0.044,0.321c0.151,0.071,0.283,0.138,0.421,0.194c0.54,0.223,1.087,0.433,1.624,0.665
		c2.835,1.225,5.815,1.841,8.879,2.044c2.678,0.177,5.339,0.005,7.969-0.566c6.901-1.497,12.594-4.94,16.926-10.548
		c3.495-4.525,5.522-9.647,6.017-15.344c0.327-3.765-0.065-7.468-1.188-11.087c-3.748-12.086-14.292-19.593-25.684-20.425
		c-3.718-0.272-7.367,0.172-10.918,1.329c-14.607,4.758-20.781,17.943-20.201,28.989C25.92-111.366,25.984-110.913,26.027-110.478z
		 M70.235-115.48c0,0.449-0.009,0.804,0.002,1.158c0.021,0.669-0.168,1.245-0.664,1.718c-0.173,0.165-0.398,0.321-0.397,0.657
		c0.305,0.104,0.607,0.24,0.925,0.31c2.611,0.573,5.238,0.619,7.869,0.157c0.318-0.056,0.627-0.198,0.924-0.337
		c0.114-0.053,0.178-0.211,0.282-0.343c-0.094-0.077-0.146-0.137-0.211-0.171c-0.158-0.08-0.317-0.163-0.486-0.216
		c-0.484-0.152-0.967-0.313-1.46-0.429c-0.919-0.216-1.804-0.516-2.642-0.958c-0.202-0.106-0.415-0.192-0.624-0.283
		c-0.296-0.129-0.581-0.161-0.856,0.067c-0.094,0.078-0.219,0.13-0.339,0.166c-0.432,0.129-0.678,0.003-0.809-0.427
		c-0.06-0.194-0.067-0.409-0.258-0.532C71.131-115.175,70.762-115.383,70.235-115.48z M63.127-115.874
		c0.441,0.238,0.805,0.306,1.192,0.294c0.434-0.014,0.793-0.187,1.059-0.52c0.341-0.427,0.542-0.913,0.562-1.468
		c0.02-0.556-0.199-1.001-0.66-1.293c-0.274-0.174-0.585-0.315-0.898-0.397c-1.23-0.325-2.418-0.11-3.577,0.345
		c-0.133,0.052-0.25,0.142-0.393,0.226c0.121,0.3,0.221,0.552,0.49,0.746c0.458-0.253,0.948-0.316,1.446-0.211
		c0.228,0.247,0.153,0.545,0.205,0.813c0.041,0.214,0.148,0.327,0.351,0.326c0.202-0.001,0.405-0.047,0.606-0.043
		c0.112,0.002,0.222,0.066,0.319,0.097C63.821-116.456,63.489-116.202,63.127-115.874z"/>
</g>
</svg>
